<svg
  xmlns="http://www.w3.org/2000/svg"
  xml:space="preserve"
  width="800"
  height="800"
  viewBox="0 0 800 800"
>
  <path
    fill="#010101"
    d="M270.986 440.52c0 39.164-31.749 70.912-70.913 70.912-39.163 0-70.912-31.748-70.912-70.912s31.748-70.912 70.912-70.912 70.913 31.747 70.913 70.912m328.849-70.912c-39.164-.022-70.93 31.707-70.953 70.871-.021 39.164 31.708 70.931 70.872 70.953 39.164.021 70.932-31.707 70.953-70.871v-.041c0-39.149-31.724-70.89-70.872-70.912m199.963 70.912c0 110.394-89.568 199.881-199.963 199.881a199.17 199.17 0 0 1-135.802-53.209l-64.039 69.656-64.077-69.729A199.12 199.12 0 0 1 200.054 640.4C89.66 640.4.173 550.913.173 440.52a199.42 199.42 0 0 1 65.234-147.726L0 221.628h145.354c153.774-104.635 355.884-104.635 509.658 0H800l-65.419 71.166a199.4 199.4 0 0 1 65.217 147.726m-464.449 0c.006-74.71-60.554-135.278-135.265-135.285-74.711-.005-135.28 60.554-135.285 135.265s60.555 135.279 135.265 135.285h.01c74.704-.007 135.264-60.561 135.275-135.265m214.755-201.939a390.26 390.26 0 0 0-300.237 0c85.381 32.647 150.127 109.025 150.127 198.045.001-89.01 64.738-165.387 150.11-198.045M735.1 440.52c0-74.704-60.559-135.265-135.265-135.265-74.704 0-135.265 60.561-135.265 135.265s60.561 135.265 135.265 135.265c74.702-.007 135.259-60.563 135.265-135.265"
  />
</svg>
